# xmcd
#
# Track frame offsets: 
#        150
#        22818
#        44087
#        58536
#        76774
#        111935
#        128798
#        145013
#        162906
#        181062
#        197973
#        216546
#        233937
#        253115
#
# Disc length: 3558 seconds
#
# Revision: 3
# Processed by: cddbd v1.5.2PL0 Copyright (c) Steve Scherf et al.
# Submitted via: ExactAudioCopyFreeDBPlugin 1.0
#
DISCID=c50de40e
DTITLE=Freedom Call - Beyond
DYEAR=2014
DGENRE=Melodic Power Metal
TTITLE0=Union Of The Strong
TTITLE1=Knights Of Taragon
TTITLE2=Heart Of A Warrior
TTITLE3=Come On Home
TTITLE4=Beyond
TTITLE5=Among The Shadows
TTITLE6=Edge Of The Ocean
TTITLE7=Journey Into Wonderland
TTITLE8=Rhythm Of Light
TTITLE9=Dance Off The Devil
TTITLE10=Paladin
TTITLE11=Follow Your Heart
TTITLE12=Colours Of Freedom
TTITLE13=Beyond Eternity
EXTD=YEAR: 2014
EXTT0=
EXTT1=
EXTT2=
EXTT3=
EXTT4=
EXTT5=
EXTT6=
EXTT7=
EXTT8=
EXTT9=
EXTT10=
EXTT11=
EXTT12=
EXTT13=
PLAYORDER=
